<?xml version="1.0" encoding="UTF-8" standalone="no"?>
<!-- Created with Inkscape (http://www.inkscape.org/) -->
<!-- ClipArt by Arvin61r58 (http://openclipart.org/user-detail/Arvin61r58) -->
<svg id="svg2" xmlns:rdf="http://www.w3.org/1999/02/22-rdf-syntax-ns#" xmlns="http://www.w3.org/2000/svg" height="8.5in" viewBox="0 0 279.4 215.9" width="11in" version="1.0" xmlns:cc="http://creativecommons.org/ns#" xmlns:dc="http://purl.org/dc/elements/1.1/">
 <title id="title10777">Calendar Month</title>
 <metadata id="metadata640">
  <rdf:RDF>
   <cc:Work rdf:about="">
    <dc:format>image/svg+xml</dc:format>
    <dc:type rdf:resource="http://purl.org/dc/dcmitype/StillImage"/>
    <dc:title>Calendar Month</dc:title>
    <dc:date/>
    <dc:subject>
     <rdf:Bag>
      <rdf:li>art deco</rdf:li>
      <rdf:li>business</rdf:li>
      <rdf:li>office</rdf:li>
      <rdf:li>calendar</rdf:li>
      <rdf:li>month</rdf:li>
      <rdf:li/>
     </rdf:Bag>
    </dc:subject>
    <dc:description>art deco style month calendar</dc:description>
    <dc:creator>
     <cc:Agent>
      <dc:title>Arvin61r58</dc:title>
     </cc:Agent>
    </dc:creator>
    <dc:publisher>
     <cc:Agent>
      <dc:title>Openclipart.org</dc:title>
     </cc:Agent>
    </dc:publisher>
    <dc:identifier>https://openclipart.org/</dc:identifier>
    <dc:source>https://openclipart.org/user-detail/Arvin61r58</dc:source>
    <cc:license rdf:resource="http://creativecommons.org/publicdomain/zero/1.0/"/>
   </cc:Work>
   <cc:License rdf:about="http://creativecommons.org/publicdomain/zero/1.0/">
    <cc:permits rdf:resource="http://creativecommons.org/ns#Reproduction"/>
    <cc:permits rdf:resource="http://creativecommons.org/ns#Distribution"/>
    <cc:permits rdf:resource="http://creativecommons.org/ns#DerivativeWorks"/>
   </cc:License>
  </rdf:RDF>
 </metadata>
 <defs id="defs4">
  <clipPath id="clipWmfPath1" clipPathUnits="userSpaceOnUse">
   <path id="path7" d="m0 0h631.13v901.69h-631.13z"/>
  </clipPath>
 </defs>
 <g id="g4142">
  <flowRoot id="flowRoot6738" style="writing-mode:lr;text-anchor:middle;text-align:center" fill-rule="evenodd" xml:space="preserve" font-size="45px" stroke="#000000" font-family="Gas" line-height="125%" fill="#308acf"><flowRegion id="flowRegion6740"><rect id="rect6742" y="85" width="326" x="90" height="71"/></flowRegion><flowPara id="flowPara6744"/></flowRoot>
  <text id="text6746" style="text-anchor:middle;text-align:center" font-family="Gautami" xml:space="preserve" font-size="12.7px" line-height="125%" stroke="#000000" y="39.228889" x="36.406666" stroke-width=".28222" fill="none"><tspan id="tspan6748" font-family="Gautami" y="39.228889" x="36.406666" stroke-width=".28222" fill="none"/></text>
  <flowRoot id="flowRoot6766" style="writing-mode:lr;text-anchor:middle;text-align:center" fill-rule="evenodd" xml:space="preserve" font-size="17.5px" font-family="Broadway" line-height="125%" fill="#000000"><flowRegion id="flowRegion6768"><rect id="rect6770" y="186.57" width="123.95" height="478.31" x="773.88"/></flowRegion><flowPara id="flowPara6772"/></flowRoot>
  <flowRoot id="flowRoot8721" style="writing-mode:lr;text-anchor:middle;text-align:center" fill-rule="evenodd" xml:space="preserve" font-size="17.5px" font-family="Broadway" line-height="125%" fill="#000000"><flowRegion id="flowRegion8723"><rect id="rect8725" y="229.03" width="610.75" x="116.85" height="24.929"/></flowRegion><flowPara id="flowPara8727"/></flowRoot>
 </g>
 <g id="g10397">
  <title id="title10756">Calendar Month  --  by Arvin61r58</title>
  <path id="path12" stroke-linejoin="round" d="m248.36 282.49h181.26" clip-path="url(#clipWmfPath1)" transform="matrix(.48907 0 0 .48907 .14041 -94.052)" stroke="#000" stroke-linecap="round" stroke-width=".57706" fill="#308acf"/>
  <g id="g6758" transform="translate(.77455 .646)">
   <path id="path266" style="color-rendering:auto;text-decoration-color:#000000;color:#000000;isolation:auto;mix-blend-mode:normal;shape-rendering:auto;solid-color:#000000;block-progression:tb;text-decoration-line:none;image-rendering:auto;white-space:normal;text-indent:0;text-transform:none;text-decoration-style:solid" clip-path="url(#clipWmfPath1)" transform="matrix(.39511 0 0 .39511 16.49 -14.397)" d="m93.34 177.18a0.50005 0.50005 0 0 0 -0.49219 0.50782v55.209h-66.154a0.50005 0.50005 0 0 0 -0.08398 -0.006 0.50005 0.50005 0 0 0 -0.31641 0.11914 0.50005 0.50005 0 0 0 -0.01953 0.0176 0.50005 0.50005 0 0 0 -0.01758 0.0156 0.50005 0.50005 0 0 0 -0.002 0.004 0.50005 0.50005 0 0 0 -0.03125 0.0332 0.50005 0.50005 0 0 0 -0.002 0.004 0.50005 0.50005 0 0 0 -0.02734 0.0371 0.50005 0.50005 0 0 0 -0.002 0.004 0.50005 0.50005 0 0 0 -0.04492 0.084 0.50005 0.50005 0 0 0 -0.002 0.004 0.50005 0.50005 0 0 0 -0.01367 0.043 0.50005 0.50005 0 0 0 -0.002 0.006 0.50005 0.50005 0 0 0 -0.0098 0.043 0.50005 0.50005 0 0 0 -0.0059 0.0332 0.50005 0.50005 0 0 0 -0.002 0.0156 0.50005 0.50005 0 0 0 0 0.006 0.50005 0.50005 0 0 0 0.002 0.0879 0.50005 0.50005 0 0 0 0 0.006 0.50005 0.50005 0 0 0 0.0039 0.0273v22.801a0.50005 0.50005 0 0 0 0.5 0.5h33.365a0.50005 0.50005 0 0 0 0.5 -0.5v-22.385h32.365v51.899h-66.15a0.50005 0.50005 0 0 0 -0.08789 -0.006 0.50005 0.50005 0 0 0 -0.31641 0.11914 0.50005 0.50005 0 0 0 -0.01953 0.0176 0.50005 0.50005 0 0 0 -0.01758 0.0156 0.50005 0.50005 0 0 0 -0.002 0.004 0.50005 0.50005 0 0 0 -0.03125 0.0332 0.50005 0.50005 0 0 0 -0.002 0.004 0.50005 0.50005 0 0 0 -0.02734 0.0371 0.50005 0.50005 0 0 0 -0.002 0.004 0.50005 0.50005 0 0 0 -0.04492 0.084 0.50005 0.50005 0 0 0 -0.002 0.004 0.50005 0.50005 0 0 0 -0.01367 0.043 0.50005 0.50005 0 0 0 -0.002 0.004 0.50005 0.50005 0 0 0 -0.0098 0.0449 0.50005 0.50005 0 0 0 -0.0059 0.0332 0.50005 0.50005 0 0 0 -0.002 0.0156 0.50005 0.50005 0 0 0 0 0.006 0.50005 0.50005 0 0 0 -0.002 0.0469 0.50005 0.50005 0 0 0 0 0.002 0.50005 0.50005 0 0 0 0.0039 0.0449 0.50005 0.50005 0 0 0 0.0039 0.0273v22.801a0.50005 0.50005 0 0 0 0.5 0.5h33.365a0.50005 0.50005 0 0 0 0.5 -0.5v-22.385h32.365v51.897h-66.154a0.50005 0.50005 0 0 0 -0.08398 -0.006 0.50005 0.50005 0 0 0 -0.31641 0.11914 0.50005 0.50005 0 0 0 -0.01953 0.0156 0.50005 0.50005 0 0 0 -0.01758 0.0176 0.50005 0.50005 0 0 0 -0.002 0.004 0.50005 0.50005 0 0 0 -0.03125 0.0332 0.50005 0.50005 0 0 0 -0.002 0.004 0.50005 0.50005 0 0 0 -0.02734 0.0371 0.50005 0.50005 0 0 0 -0.002 0.004 0.50005 0.50005 0 0 0 -0.02539 0.043 0.50005 0.50005 0 0 0 0 0.002 0.50005 0.50005 0 0 0 -0.03516 0.0879 0.50005 0.50005 0 0 0 -0.0039 0.0176 0.50005 0.50005 0 0 0 -0.0078 0.0293 0.50005 0.50005 0 0 0 0 0.006 0.50005 0.50005 0 0 0 -0.0078 0.043 0.50005 0.50005 0 0 0 0 0.006 0.50005 0.50005 0 0 0 0.0039 0.0996 0.50005 0.50005 0 0 0 0.002 0.0195v22.99a0.50005 0.50005 0 0 0 0.5 0.5h33.365a0.50005 0.50005 0 0 0 0.5 -0.5v-22.572h32.365v52.086h-66.15a0.50005 0.50005 0 0 0 -0.08789 -0.008 0.50005 0.50005 0 0 0 -0.31641 0.12109 0.50005 0.50005 0 0 0 -0.01953 0.0156 0.50005 0.50005 0 0 0 -0.01758 0.0176 0.50005 0.50005 0 0 0 -0.002 0.004 0.50005 0.50005 0 0 0 -0.03125 0.0332 0.50005 0.50005 0 0 0 -0.002 0.004 0.50005 0.50005 0 0 0 -0.02734 0.0371 0.50005 0.50005 0 0 0 -0.002 0.004 0.50005 0.50005 0 0 0 -0.04492 0.084 0.50005 0.50005 0 0 0 -0.002 0.004 0.50005 0.50005 0 0 0 -0.01367 0.043 0.50005 0.50005 0 0 0 -0.0078 0.0293 0.50005 0.50005 0 0 0 -0.0039 0.0195 0.50005 0.50005 0 0 0 0 0.004 0.50005 0.50005 0 0 0 -0.0078 0.0449 0.50005 0.50005 0 0 0 0 0.006 0.50005 0.50005 0 0 0 0.002 0.0937 0.50005 0.50005 0 0 0 0.0039 0.0254v22.803a0.50005 0.50005 0 0 0 0.5 0.5h33.365a0.50005 0.50005 0 0 0 0.5 -0.5v-22.385h32.365v51.897h-66.15a0.50005 0.50005 0 0 0 -0.08789 -0.006 0.50005 0.50005 0 0 0 -0.31641 0.11914 0.50005 0.50005 0 0 0 -0.01953 0.0176 0.50005 0.50005 0 0 0 -0.01758 0.0156 0.50005 0.50005 0 0 0 -0.002 0.004 0.50005 0.50005 0 0 0 -0.03125 0.0332 0.50005 0.50005 0 0 0 -0.002 0.004 0.50005 0.50005 0 0 0 -0.02734 0.0371 0.50005 0.50005 0 0 0 -0.002 0.004 0.50005 0.50005 0 0 0 -0.04492 0.084 0.50005 0.50005 0 0 0 -0.002 0.004 0.50005 0.50005 0 0 0 -0.01367 0.043 0.50005 0.50005 0 0 0 -0.002 0.004 0.50005 0.50005 0 0 0 -0.0098 0.0449 0.50005 0.50005 0 0 0 -0.0059 0.0332 0.50005 0.50005 0 0 0 -0.002 0.0156 0.50005 0.50005 0 0 0 0 0.006 0.50005 0.50005 0 0 0 -0.002 0.0469 0.50005 0.50005 0 0 0 0 0.002 0.50005 0.50005 0 0 0 0.0039 0.0449 0.50005 0.50005 0 0 0 0.0039 0.0273v22.801a0.50005 0.50005 0 0 0 0.5 0.5h33.365a0.50005 0.50005 0 0 0 0.5 -0.5v-22.385h32.365v63.84a0.50005 0.50005 0 1 0 1 0v-40.955h32.865a0.50005 0.50005 0 0 0 0.5 -0.5v-22.385h32.365v63.84a0.50005 0.50005 0 1 0 1 0v-40.955h32.678a0.50005 0.50005 0 0 0 0.5 -0.5v-22.385h32.365v63.84a0.50005 0.50005 0 1 0 1 0v-40.955h32.865a0.50005 0.50005 0 0 0 0.5 -0.5v-22.385h32.365v63.84a0.50005 0.50005 0 1 0 1 0v-40.955h32.865a0.50005 0.50005 0 0 0 0.5 -0.5v-22.385h32.365v63.84a0.50005 0.50005 0 1 0 1 0v-40.955h32.678a0.50005 0.50005 0 0 0 0.5 -0.5v-22.385h32.365v63.84a0.50005 0.50005 0 1 0 1 0v-40.955h32.678a0.50005 0.50005 0 0 0 0.5 -0.5v-22.385h32.49a0.50005 0.50005 0 1 0 0 -1h-65.668v-29.012h32.678a0.50005 0.50005 0 0 0 0.5 -0.5v-22.385h32.49a0.50005 0.50005 0 1 0 0 -1h-65.668v-29.014h32.678a0.50005 0.50005 0 0 0 0.5 -0.5v-22.572h32.49a0.50005 0.50005 0 1 0 0 -1h-65.668v-29.012h32.678a0.50005 0.50005 0 0 0 0.5 -0.5v-22.385h32.49a0.50005 0.50005 0 1 0 0 -1h-65.668v-29.014h32.678a0.50005 0.50005 0 0 0 0.5 -0.5v-22.385h32.49a0.50005 0.50005 0 1 0 0 -1h-65.668v-55.209a0.50005 0.50005 0 0 0 -0.50781 -0.50782 0.50005 0.50005 0 0 0 -0.49219 0.50782v55.209h-65.543v-55.209a0.50005 0.50005 0 0 0 -0.50781 -0.50782 0.50005 0.50005 0 0 0 -0.49219 0.50782v55.209h-65.73v-55.209a0.50005 0.50005 0 0 0 -0.50781 -0.50782 0.50005 0.50005 0 0 0 -0.49219 0.50782v55.209h-65.73v-55.209a0.50005 0.50005 0 0 0 -0.50781 -0.50782 0.50005 0.50005 0 0 0 -0.49219 0.50782v55.209h-65.543v-55.209a0.50005 0.50005 0 0 0 -0.50781 -0.50782 0.50005 0.50005 0 0 0 -0.49219 0.50782v55.209h-65.73v-55.209a0.50005 0.50005 0 0 0 -0.50781 -0.50782zm-66.223 56.717h32.365v21.885h-32.365v-21.885zm66.73 0h32.365v21.885h-32.365v-21.885zm33.365 0h32.365v51.899h-65.73v-29.014h32.865a0.50005 0.50005 0 0 0 0.5 -0.5v-22.385zm33.365 0h32.178v21.885h-32.178v-21.885zm33.178 0h32.365v51.899h-65.543v-29.014h32.678a0.50005 0.50005 0 0 0 0.5 -0.5v-22.385zm33.365 0h32.365v21.885h-32.365v-21.885zm33.365 0h32.365v51.899h-65.73v-29.014h32.865a0.50005 0.50005 0 0 0 0.5 -0.5v-22.385zm33.365 0h32.365v21.885h-32.365v-21.885zm33.365 0h32.365v51.899h-65.73v-29.014h32.865a0.50005 0.50005 0 0 0 0.5 -0.5v-22.385zm33.365 0h32.178v21.885h-32.178v-21.885zm33.178 0h32.365v51.899h-65.543v-29.014h32.678a0.50005 0.50005 0 0 0 0.5 -0.5v-22.385zm33.365 0h32.178v21.885h-32.178v-21.885zm-400.01 52.898h32.365v21.885h-32.365v-21.885zm66.73 0h32.365v21.885h-32.365v-21.885zm33.365 0h32.365v51.897h-65.73v-29.012h32.865a0.50005 0.50005 0 0 0 0.5 -0.5v-22.385zm33.365 0h32.178v21.885h-32.178v-21.885zm33.178 0h32.365v51.897h-65.543v-29.012h32.678a0.50005 0.50005 0 0 0 0.5 -0.5v-22.385zm33.365 0h32.365v21.885h-32.365v-21.885zm33.365 0h32.365v51.897h-65.73v-29.012h32.865a0.50005 0.50005 0 0 0 0.5 -0.5v-22.385zm33.365 0h32.365v21.885h-32.365v-21.885zm33.365 0h32.365v51.897h-65.73v-29.012h32.865a0.50005 0.50005 0 0 0 0.5 -0.5v-22.385zm33.365 0h32.178v21.885h-32.178v-21.885zm33.178 0h32.365v51.897h-65.543v-29.012h32.678a0.50005 0.50005 0 0 0 0.5 -0.5v-22.385zm33.365 0h32.178v21.885h-32.178v-21.885zm-400.01 52.896h32.365v22.072h-32.365v-22.072zm66.73 0h32.365v22.072h-32.365v-22.072zm33.365 0h32.365v52.086h-65.73v-29.014h32.865a0.50005 0.50005 0 0 0 0.5 -0.5v-22.572zm33.365 0h32.178v22.072h-32.178v-22.072zm33.178 0h32.365v52.086h-65.543v-29.014h32.678a0.50005 0.50005 0 0 0 0.5 -0.5v-22.572zm33.365 0h32.365v22.072h-32.365v-22.072zm33.365 0h32.365v52.086h-65.73v-29.014h32.865a0.50005 0.50005 0 0 0 0.5 -0.5v-22.572zm33.365 0h32.365v22.072h-32.365v-22.072zm33.365 0h32.365v52.086h-65.73v-29.014h32.865a0.50005 0.50005 0 0 0 0.5 -0.5v-22.572zm33.365 0h32.178v22.072h-32.178v-22.072zm33.178 0h32.365v52.086h-65.543v-29.014h32.678a0.50005 0.50005 0 0 0 0.5 -0.5v-22.572zm33.365 0h32.178v22.072h-32.178v-22.072zm-400.01 53.086h32.365v21.885h-32.365v-21.885zm66.73 0h32.365v21.885h-32.365v-21.885zm33.365 0h32.365v51.897h-65.73v-29.012h32.865a0.50005 0.50005 0 0 0 0.5 -0.5v-22.385zm33.365 0h32.178v21.885h-32.178v-21.885zm33.178 0h32.365v51.897h-65.543v-29.012h32.678a0.50005 0.50005 0 0 0 0.5 -0.5v-22.385zm33.365 0h32.365v21.885h-32.365v-21.885zm33.365 0h32.365v51.897h-65.73v-29.012h32.865a0.50005 0.50005 0 0 0 0.5 -0.5v-22.385zm33.365 0h32.365v21.885h-32.365v-21.885zm33.365 0h32.365v51.897h-65.73v-29.012h32.865a0.50005 0.50005 0 0 0 0.5 -0.5v-22.385zm33.365 0h32.178v21.885h-32.178v-21.885zm33.178 0h32.365v51.897h-65.543v-29.012h32.678a0.50005 0.50005 0 0 0 0.5 -0.5v-22.385zm33.365 0h32.178v21.885h-32.178v-21.885zm-400.01 52.896h32.365v21.885h-32.365v-21.885zm66.73 0h32.365v21.885h-32.365v-21.885zm66.73 0h32.178v21.885h-32.178v-21.885zm66.543 0h32.365v21.885h-32.365v-21.885zm66.73 0h32.365v21.885h-32.365v-21.885zm66.73 0h32.178v21.885h-32.178v-21.885zm66.543 0h32.178v21.885h-32.178v-21.885z"/>
   <path id="path390" style="color-rendering:auto;text-decoration-color:#000000;color:#000000;isolation:auto;mix-blend-mode:normal;shape-rendering:auto;solid-color:#000000;block-progression:tb;text-decoration-line:none;image-rendering:auto;white-space:normal;text-indent:0;text-transform:none;text-decoration-style:solid" clip-path="url(#clipWmfPath1)" transform="matrix(.39511 0 0 .39511 16.49 -68.479)" d="m44.598 313.62a0.93732 0.93732 0 0 0 -0.5918 0.22461 0.93732 0.93732 0 0 0 -0.05664 0.0527 0.93732 0.93732 0 0 0 -0.01563 0.0137 0.93732 0.93732 0 0 0 -0.01172 0.0137 0.93732 0.93732 0 0 0 -0.24805 0.78906v8.6738h-17.057a0.93732 0.93732 0 0 0 -0.9375 0.9375v312.32a0.93732 0.93732 0 0 0 0.9375 0.9375h17.057v8.8164a0.93732 0.93732 0 0 0 0.9375 0.9375h430.18a0.93732 0.93732 0 0 0 0.93555 -0.9375v-8.8164h17.059a0.93732 0.93732 0 0 0 0.9375 -0.9375v-312.32a0.93732 0.93732 0 0 0 -0.9375 -0.9375h-17.059v-8.8164a0.93732 0.93732 0 0 0 -0.93555 -0.9375h-430.03a0.93732 0.93732 0 0 0 -0.17188 -0.0137zm0.95117 1.8887h428.31v8.8164a0.93732 0.93732 0 0 0 0.9375 0.9375h17.057v310.44h-17.057a0.93732 0.93732 0 0 0 -0.9375 0.9375v8.8164h-428.32v-8.8164a0.93732 0.93732 0 0 0 -0.9375 -0.9375h-17.057v-310.44h17.057a0.93732 0.93732 0 0 0 0.9375 -0.9375v-8.8164z"/>
  </g>
  <g id="layer1" transform="matrix(0 .28222 -.28222 0 296.99 -.0000022018)">
   <path id="path4147" d="m45 1024.2v-5.625h-11.25v-11.25h-11.25v-900h11.25v-11.25h11.25v-11.25h675v11.25h11.25v11.25h11.25v900h-11.25v11.25h-11.25v11.25h-675v-5.625zm11.25-1.875v-3.75h-7.5v7.5h7.5v-3.75zm11.25 0v-3.75h-7.5v7.5h7.5v-3.75zm626.25 0v-3.75h-622.5v7.5h622.5v-3.75zm11.25 0v-3.75h-7.5v7.5h7.5v-3.75zm11.25 0v-3.75h-7.5v7.5h7.5v-3.75zm-671.25-11.2v-3.75h-7.5v7.5h7.5v-3.75zm11.25 0v-3.75h-7.5v7.5h7.5v-3.75zm11.25 0v-3.75h-7.5v7.5h7.5v-3.75zm626.25 0v-3.75h-622.5v7.5h622.5v-3.75zm11.25 0v-3.75h-7.5v7.5h7.5v-3.75zm11.25 0v-3.75h-7.5v7.5h7.5v-3.75zm11.25 0v-3.75h-7.5v7.5h7.5v-3.75zm-693.75-11.25v-3.75h-7.5v7.5h7.5v-3.75zm11.25 0v-3.75h-7.5v7.5h7.5v-3.75zm11.25 0v-3.75h-7.5v7.5h7.5v-3.75zm11.25 0v-3.75h-7.5v7.5h7.5v-3.75zm626.25 0v-3.75h-622.5v7.5h622.5v-3.75zm11.25 0v-3.75h-7.5v7.5h7.5v-3.75zm11.25 0v-3.75h-7.5v7.5h7.5v-3.75zm11.25 0v-3.75h-7.5v7.5h7.5v-3.75zm11.25 0v-3.75h-7.5v7.5h7.5v-3.75zm-705-11.25v-3.75h-7.5v7.5h7.5v-3.75zm11.25 0v-3.75h-7.5v7.5h7.5v-3.75zm11.25 0v-3.75h-7.5v7.5h7.5v-3.75zm11.25 0v-3.75h-7.5v7.5h7.5v-3.75zm626.25 0v-3.75h-622.5v7.5h622.5v-3.75zm11.25 0v-3.75h-7.5v7.5h7.5v-3.75zm11.25 0v-3.75h-7.5v7.5h7.5v-3.75zm11.25 0v-3.75h-7.5v7.5h7.5v-3.75zm11.25 0v-3.75h-7.5v7.5h7.5v-3.75zm-705-431.14v-423.75h-7.5v847.5h7.5v-423.75zm11.25 0v-423.75h-7.5v847.5h7.5v-423.75zm11.25 0v-423.75h-7.5v847.5h7.5v-423.75zm11.25 0v-423.75h-7.5v847.5h7.5v-423.75zm626.25 0v-423.75h-622.5v847.5h622.5v-423.75zm11.25 0v-423.75h-7.5v847.5h7.5v-423.75zm11.25 0v-423.75h-7.5v847.5h7.5v-423.75zm11.25 0v-423.75h-7.5v847.5h7.5v-423.75zm11.25 0v-423.75h-7.5v847.5h7.5v-423.75zm-705-431.25v-3.75h-7.5v7.5h7.5v-3.75zm11.25 0v-3.75h-7.5v7.5h7.5v-3.75zm11.25 0v-3.75h-7.5v7.5h7.5v-3.75zm11.25 0v-3.75h-7.5v7.5h7.5v-3.75zm626.25 0v-3.75h-622.5v7.5h622.5v-3.75zm11.25 0v-3.75h-7.5v7.5h7.5v-3.75zm11.25 0v-3.75h-7.5v7.5h7.5v-3.75zm11.25 0v-3.75h-7.5v7.5h7.5v-3.75zm11.25 0v-3.75h-7.5v7.5h7.5v-3.75zm-705-11.25v-3.75h-7.5v7.5h7.5v-3.75zm11.25 0v-3.75h-7.5v7.5h7.5v-3.75zm11.25 0v-3.75h-7.5v7.5h7.5v-3.75zm11.25 0v-3.75h-7.5v7.5h7.5v-3.75zm626.25 0v-3.75h-622.5v7.5h622.5v-3.75zm11.25 0v-3.75h-7.5v7.5h7.5v-3.75zm11.25 0v-3.75h-7.5v7.5h7.5v-3.75zm11.25 0v-3.75h-7.5v7.5h7.5v-3.75zm11.25 0v-3.75h-7.5v7.5h7.5v-3.75zm-693.75-11.28v-3.75h-7.5v7.5h7.5v-3.75zm11.25 0v-3.75h-7.5v7.5h7.5v-3.75zm11.25 0v-3.75h-7.5v7.5h7.5v-3.75zm626.25 0v-3.75h-622.5v7.5h622.5v-3.75zm11.25 0v-3.75h-7.5v7.5h7.5v-3.75zm11.25 0v-3.75h-7.5v7.5h7.5v-3.75zm11.25 0v-3.75h-7.5v7.5h7.5v-3.75zm-671.25-11.243v-3.75h-7.5v7.5h7.5v-3.75zm11.25 0v-3.75h-7.5v7.5h7.5v-3.75zm626.25 0v-3.75h-622.5v7.5h622.5v-3.75zm11.25 0v-3.75h-7.5v7.5h7.5v-3.75zm11.25 0v-3.75h-7.5v7.5h7.5v-3.75z">
    <title id="title4168">Border 41  --  by Arvin61r58</title>
   </path>
  </g>
  <g id="g4167" fill-rule="evenodd">
   <g id="text6754" transform="translate(.77455 .646)">
    <path id="path6786" d="m45.407 27.418 2.4033 8.2131 1.0914 3.638 0.98116 3.2963 0.13229 0.41892h-6.7028l-2.1167-7.7942-4.553 6.8461-4.6743-6.5043q-0.67248 2.3812-1.4662 5.8429-0.28663 1.3229-0.41892 1.5765-0.12127 0.24253-0.50712 0.24253-0.48507 0-0.48507-0.33073 0-0.09922 0.30868-1.1135l0.68351-2.3482 1.1906-4.0569 2.3261-7.9265 6.0413 8.7423 5.7657-8.7423z"/>
    <path id="path6788" d="m58.879 27.484q1.7418 0 3.3624 0.73863 2.3812 1.0914 3.638 3.3624 1.0032 1.819 1.0032 3.9577 0 1.7198-0.76068 3.3293-1.1355 2.4033-3.5388 3.649-1.7639 0.91502-3.7042 0.91502-2.0505 0-3.8806-1.0363-2.4364-1.367-3.4727-3.8365-0.63941-1.5103-0.63941-3.1199 0-2.0174 1.0032-3.8475 1.2347-2.249 3.6049-3.3624 1.5765-0.73863 3.3845-0.74965zm-0.87092 0.73863-0.06615 7.1768 0.05512 5.9642 0.01102 1.345q0.37483 0.06615 0.71658 0.06615 2.4364 0 4.3546-1.345 1.7529-1.2347 2.5356-3.175 0.55122-1.356 0.55122-2.8112 0-1.9182-0.92604-3.5719-1.1355-2.0285-3.197-2.9876-1.5434-0.7276-3.2522-0.7276-0.39688 0-0.78272 0.06614z"/>
    <path id="path6790" d="m82.184 35.256v-1.8411l-0.02205-2.9214-0.01102-1.3339-0.01102-0.83785q0-0.59531 0.4079-0.59531 0.24254 0 0.33073 0.14332 0.09922 0.13229 0.09922 0.51814v0.15434q-0.01102 0.23151-0.01102 0.76068l-0.0441 3.7152-0.03307 3.4065 0.03307 3.5829 0.0441 3.5939q-2.271-1.423-6.648-3.925-4.377-2.514-7.089-3.947l0.01102 0.54019 0.11024 5.6885 0.01102 0.76068q0 0.47404-0.44097 0.47404-0.452 0-0.452-0.58429l0.01102-0.7717 0.01102-1.2457 0.0441-5.6555-0.08819-7.6178q4.4648 2.7671 13.736 7.9375z"/>
    <path id="path6792" d="m95.248 28.674-0.05512 3.4506-0.03307 3.2742 0.03307 7.5847h-6.7248l0.06615-8.7864-0.03307-2.9876-0.03307-2.5356-1.4552 0.03307-2.0836 0.0441-0.30868 0.01102q-0.52917 0-0.52917-0.39688 0-0.35278 0.30868-0.39688 0.08819-0.02205 0.54019-0.03307h13.527q0.70556 0.01102 0.83785 0.06614 0.22049 0.0882 0.22049 0.37483 0 0.37483-0.56224 0.37483l-0.95912-0.03307-2.5356-0.0441h-0.22049z"/>
    <path id="path6794" d="m114.88 33.117-0.0221-3.0978-0.022-1.378q0-0.54019 0.0882-0.7276t0.3638-0.18741q0.41892 0 0.41892 0.67248l-0.011 0.74965-0.022 2.4474-0.0331 3.9357 0.0331 4.101 0.022 2.8773q0 0.39688-0.0882 0.54019-0.0772 0.14332-0.3197 0.14332-0.25356 0-0.35278-0.15434-0.0882-0.15434-0.0882-0.56224l0.011-0.93707 0.0331-5.5342v-2.0505l-0.41892-0.01102-2.1497-0.0441-4.7294 0.05512 0.011 3.0427 0.0661 5.9862h-6.7579l0.0551-9.5581-0.022-2.5246-0.011-2.3261-0.022-0.63941h6.7579l-0.011 0.57326-0.0551 4.6082q1.1245 0.07717 3.5719 0.07717 2.249 0 3.7042-0.07717z"/>
   </g>
   <g id="text6762" transform="translate(-.73513 .646)">
    <path id="path6775" d="m225.01 39.95v-0.80546l-0.01-1.2781-0.005-0.5836-0.005-0.36656q0-0.26045 0.17845-0.26045 0.10611 0 0.1447 0.0627 0.0434 0.05788 0.0434 0.22669v0.06752q-0.005 0.10129-0.005 0.3328l-0.0193 1.6254-0.0145 1.4903 0.0145 1.5675 0.0193 1.5723q-0.99356-0.62218-2.9084-1.717-1.9148-1.0997-3.1013-1.7267l0.005 0.23633 0.0482 2.4887 0.005 0.3328q0 0.2074-0.19293 0.2074-0.19775 0-0.19775-0.25563l0.005-0.33762 0.005-0.54501 0.0193-2.4743-0.0386-3.3328q1.9534 1.2106 6.0096 3.4727z"/>
    <path id="path6777" d="m229.63 36.55q0.76206 0 1.4711 0.32315 1.0418 0.47749 1.5916 1.4711 0.43891 0.79582 0.43891 1.7315 0 0.75241-0.3328 1.4566-0.49678 1.0514-1.5482 1.5965-0.7717 0.40032-1.6206 0.40032-0.8971 0-1.6977-0.45337-1.0659-0.59807-1.5193-1.6784-0.27974-0.66077-0.27974-1.3649 0-0.88263 0.4389-1.6833 0.5402-0.98392 1.5772-1.4711 0.68971-0.32315 1.4807-0.32797zm-0.38103 0.32315-0.0289 3.1399 0.0241 2.6093 0.005 0.58842q0.16399 0.02894 0.31351 0.02894 1.0659 0 1.9051-0.58842 0.76688-0.54019 1.1093-1.3891 0.24115-0.59325 0.24115-1.2299 0-0.83922-0.40514-1.5627-0.49678-0.88746-1.3987-1.3071-0.67524-0.31833-1.4228-0.31833-0.17364 0-0.34245 0.02894z"/>
    <path id="path6779" d="m237.65 37.071-0.0241 1.5096-0.0145 1.4325 0.0145 3.3183h-2.9421l0.0289-3.844-0.0145-1.3071-0.0145-1.1093-0.63666 0.01447-0.91157 0.01929-0.13505 0.0048q-0.23151 0-0.23151-0.17363 0-0.15434 0.13505-0.17363 0.0386-0.0096 0.23633-0.01447h5.918q0.30868 0.0048 0.36656 0.02894 0.0965 0.03858 0.0965 0.16399 0 0.16399-0.24598 0.16399l-0.41961-0.01447-1.1093-0.01929h-0.0965z"/>
    <path id="path6781" d="m243.05 38.86q-0.01 0.22186-0.01 0.54019v0.28939l0.0338 3.328 1.635-0.01929 1.1576-0.01447q0.28456 0 0.28456 0.17363 0 0.14469-0.14469 0.16399-0.0338 0.0048-0.40032 0.0096h-5.4791l0.005-0.2508 0.005-1.6109 0.0193-1.7267-0.0386-2.9952h5.1125q0.34244 0 0.39068 0.01447 0.11093 0.02894 0.11093 0.16399 0 0.16881-0.21222 0.16881h-0.0338l-2.4164-0.03376-0.0193 1.4952 0.52572 0.0048 1.6881-0.02894 0.37138-0.0048q0.20258 0 0.26528 0.03376 0.0675 0.03376 0.0675 0.13505 0 0.1881-0.31833 0.1881l-0.38102-0.0096-2.2186-0.01447z"/>
    <path id="path6783" d="m246.68 42.212q0.0868 0 0.20257 0.13022 0.36173 0.3955 0.88263 0.63665 0.52572 0.23633 1.037 0.23633 0.5643 0 0.5643-0.34244 0-0.21704-0.19775-0.48714-0.19774-0.27492-0.94533-1.0804-0.94051-1.0177-1.254-1.5096-0.41479-0.65112-0.41479-1.2395 0-0.88746 0.79099-1.4518 0.77652-0.55466 1.9148-0.55466 0.79582 0 1.4614 0.32315 0.25081 0.1254 0.42926 0.28939 0.18328 0.16399 0.18328 0.27492 0 0.05306-0.0531 0.10129-0.0482 0.04341-0.10129 0.04341-0.082 0-0.24116-0.14952-0.26044-0.24598-0.68488-0.40514-0.42444-0.16399-0.81511-0.16399-0.24116 0-0.3955 0.10611-0.14951 0.10129-0.14951 0.26527 0 0.19775 0.1881 0.48231t0.63665 0.75723q1.418 1.5096 1.7363 2.0354 0.3328 0.55466 0.3328 1.0707 0 0.4389-0.23634 0.82958-0.23633 0.39067-0.65594 0.64148-0.80064 0.47749-1.9534 0.47749-1.0611 0-1.8666-0.54984-0.5643-0.38585-0.5643-0.60289 0-0.0627 0.0482-0.11093 0.053-0.05306 0.12058-0.05306z"/>
   </g>
   <g id="flowRoot6796" transform="matrix(.28222 0 0 .28222 .77455 2.2032)">
    <path id="path6805" d="m776.38 194.21v1.2219h-9.0918v-1.2219h9.0918z"/>
    <path id="path6807" d="m785.13 194.21v1.2219h-9.0918v-1.2219h9.0918z"/>
    <path id="path6809" d="m793.88 194.21v1.2219h-9.0918v-1.2219h9.0918z"/>
    <path id="path6811" d="m802.63 194.21v1.2219h-9.0918v-1.2219h9.0918z"/>
    <path id="path6813" d="m811.38 194.21v1.2219h-9.0918v-1.2219h9.0918z"/>
    <path id="path6815" d="m820.13 194.21v1.2219h-9.0918v-1.2219h9.0918z"/>
    <path id="path6817" d="m828.88 194.21v1.2219h-9.0918v-1.2219h9.0918z"/>
    <path id="path6819" d="m837.63 194.21v1.2219h-9.0918v-1.2219h9.0918z"/>
    <path id="path6821" d="m846.38 194.21v1.2219h-9.0918v-1.2219h9.0918z"/>
    <path id="path6823" d="m855.13 194.21v1.2219h-9.0918v-1.2219h9.0918z"/>
    <path id="path6825" d="m863.88 194.21v1.2219h-9.0918v-1.2219h9.0918z"/>
    <path id="path6827" d="m872.63 194.21v1.2219h-9.0918v-1.2219h9.0918z"/>
    <path id="path6829" d="m881.38 194.21v1.2219h-9.0918v-1.2219h9.0918z"/>
    <path id="path6831" d="m890.13 194.21v1.2219h-9.0918v-1.2219h9.0918z"/>
    <path id="path6833" d="m776.38 216.08v1.2219h-9.0918v-1.2219h9.0918z"/>
    <path id="path6835" d="m785.13 216.08v1.2219h-9.0918v-1.2219h9.0918z"/>
    <path id="path6837" d="m793.88 216.08v1.2219h-9.0918v-1.2219h9.0918z"/>
    <path id="path6839" d="m802.63 216.08v1.2219h-9.0918v-1.2219h9.0918z"/>
    <path id="path6841" d="m811.38 216.08v1.2219h-9.0918v-1.2219h9.0918z"/>
    <path id="path6843" d="m820.13 216.08v1.2219h-9.0918v-1.2219h9.0918z"/>
    <path id="path6845" d="m828.88 216.08v1.2219h-9.0918v-1.2219h9.0918z"/>
    <path id="path6847" d="m837.63 216.08v1.2219h-9.0918v-1.2219h9.0918z"/>
    <path id="path6849" d="m846.38 216.08v1.2219h-9.0918v-1.2219h9.0918z"/>
    <path id="path6851" d="m855.13 216.08v1.2219h-9.0918v-1.2219h9.0918z"/>
    <path id="path6853" d="m863.88 216.08v1.2219h-9.0918v-1.2219h9.0918z"/>
    <path id="path6855" d="m872.63 216.08v1.2219h-9.0918v-1.2219h9.0918z"/>
    <path id="path6857" d="m881.38 216.08v1.2219h-9.0918v-1.2219h9.0918z"/>
    <path id="path6859" d="m890.13 216.08v1.2219h-9.0918v-1.2219h9.0918z"/>
    <path id="path6861" d="m776.38 237.96v1.2219h-9.0918v-1.2219h9.0918z"/>
    <path id="path6863" d="m785.13 237.96v1.2219h-9.0918v-1.2219h9.0918z"/>
    <path id="path6865" d="m793.88 237.96v1.2219h-9.0918v-1.2219h9.0918z"/>
    <path id="path6867" d="m802.63 237.96v1.2219h-9.0918v-1.2219h9.0918z"/>
    <path id="path6869" d="m811.38 237.96v1.2219h-9.0918v-1.2219h9.0918z"/>
    <path id="path6871" d="m820.13 237.96v1.2219h-9.0918v-1.2219h9.0918z"/>
    <path id="path6873" d="m828.88 237.96v1.2219h-9.0918v-1.2219h9.0918z"/>
    <path id="path6875" d="m837.63 237.96v1.2219h-9.0918v-1.2219h9.0918z"/>
    <path id="path6877" d="m846.38 237.96v1.2219h-9.0918v-1.2219h9.0918z"/>
    <path id="path6879" d="m855.13 237.96v1.2219h-9.0918v-1.2219h9.0918z"/>
    <path id="path6881" d="m863.88 237.96v1.2219h-9.0918v-1.2219h9.0918z"/>
    <path id="path6883" d="m872.63 237.96v1.2219h-9.0918v-1.2219h9.0918z"/>
    <path id="path6885" d="m881.38 237.96v1.2219h-9.0918v-1.2219h9.0918z"/>
    <path id="path6887" d="m890.13 237.96v1.2219h-9.0918v-1.2219h9.0918z"/>
    <path id="path6889" d="m776.38 259.83v1.2219h-9.0918v-1.2219h9.0918z"/>
    <path id="path6891" d="m785.13 259.83v1.2219h-9.0918v-1.2219h9.0918z"/>
    <path id="path6893" d="m793.88 259.83v1.2219h-9.0918v-1.2219h9.0918z"/>
    <path id="path6895" d="m802.63 259.83v1.2219h-9.0918v-1.2219h9.0918z"/>
    <path id="path6897" d="m811.38 259.83v1.2219h-9.0918v-1.2219h9.0918z"/>
    <path id="path6899" d="m820.13 259.83v1.2219h-9.0918v-1.2219h9.0918z"/>
    <path id="path6901" d="m828.88 259.83v1.2219h-9.0918v-1.2219h9.0918z"/>
    <path id="path6903" d="m837.63 259.83v1.2219h-9.0918v-1.2219h9.0918z"/>
    <path id="path6905" d="m846.38 259.83v1.2219h-9.0918v-1.2219h9.0918z"/>
    <path id="path6907" d="m855.13 259.83v1.2219h-9.0918v-1.2219h9.0918z"/>
    <path id="path6909" d="m863.88 259.83v1.2219h-9.0918v-1.2219h9.0918z"/>
    <path id="path6911" d="m872.63 259.83v1.2219h-9.0918v-1.2219h9.0918z"/>
    <path id="path6913" d="m881.38 259.83v1.2219h-9.0918v-1.2219h9.0918z"/>
    <path id="path6915" d="m890.13 259.83v1.2219h-9.0918v-1.2219h9.0918z"/>
    <path id="path6917" d="m776.38 281.71v1.2219h-9.0918v-1.2219h9.0918z"/>
    <path id="path6919" d="m785.13 281.71v1.2219h-9.0918v-1.2219h9.0918z"/>
    <path id="path6921" d="m793.88 281.71v1.2219h-9.0918v-1.2219h9.0918z"/>
    <path id="path6923" d="m802.63 281.71v1.2219h-9.0918v-1.2219h9.0918z"/>
    <path id="path6925" d="m811.38 281.71v1.2219h-9.0918v-1.2219h9.0918z"/>
    <path id="path6927" d="m820.13 281.71v1.2219h-9.0918v-1.2219h9.0918z"/>
    <path id="path6929" d="m828.88 281.71v1.2219h-9.0918v-1.2219h9.0918z"/>
    <path id="path6931" d="m837.63 281.71v1.2219h-9.0918v-1.2219h9.0918z"/>
    <path id="path6933" d="m846.38 281.71v1.2219h-9.0918v-1.2219h9.0918z"/>
    <path id="path6935" d="m855.13 281.71v1.2219h-9.0918v-1.2219h9.0918z"/>
    <path id="path6937" d="m863.88 281.71v1.2219h-9.0918v-1.2219h9.0918z"/>
    <path id="path6939" d="m872.63 281.71v1.2219h-9.0918v-1.2219h9.0918z"/>
    <path id="path6941" d="m881.38 281.71v1.2219h-9.0918v-1.2219h9.0918z"/>
    <path id="path6943" d="m890.13 281.71v1.2219h-9.0918v-1.2219h9.0918z"/>
    <path id="path6945" d="m776.38 303.58v1.2219h-9.0918v-1.2219h9.0918z"/>
    <path id="path6947" d="m785.13 303.58v1.2219h-9.0918v-1.2219h9.0918z"/>
    <path id="path6949" d="m793.88 303.58v1.2219h-9.0918v-1.2219h9.0918z"/>
    <path id="path6951" d="m802.63 303.58v1.2219h-9.0918v-1.2219h9.0918z"/>
    <path id="path6953" d="m811.38 303.58v1.2219h-9.0918v-1.2219h9.0918z"/>
    <path id="path6955" d="m820.13 303.58v1.2219h-9.0918v-1.2219h9.0918z"/>
    <path id="path6957" d="m828.88 303.58v1.2219h-9.0918v-1.2219h9.0918z"/>
    <path id="path6959" d="m837.63 303.58v1.2219h-9.0918v-1.2219h9.0918z"/>
    <path id="path6961" d="m846.38 303.58v1.2219h-9.0918v-1.2219h9.0918z"/>
    <path id="path6963" d="m855.13 303.58v1.2219h-9.0918v-1.2219h9.0918z"/>
    <path id="path6965" d="m863.88 303.58v1.2219h-9.0918v-1.2219h9.0918z"/>
    <path id="path6967" d="m872.63 303.58v1.2219h-9.0918v-1.2219h9.0918z"/>
    <path id="path6969" d="m881.38 303.58v1.2219h-9.0918v-1.2219h9.0918z"/>
    <path id="path6971" d="m890.13 303.58v1.2219h-9.0918v-1.2219h9.0918z"/>
    <path id="path6973" d="m776.38 325.46v1.2219h-9.0918v-1.2219h9.0918z"/>
    <path id="path6975" d="m785.13 325.46v1.2219h-9.0918v-1.2219h9.0918z"/>
    <path id="path6977" d="m793.88 325.46v1.2219h-9.0918v-1.2219h9.0918z"/>
    <path id="path6979" d="m802.63 325.46v1.2219h-9.0918v-1.2219h9.0918z"/>
    <path id="path6981" d="m811.38 325.46v1.2219h-9.0918v-1.2219h9.0918z"/>
    <path id="path6983" d="m820.13 325.46v1.2219h-9.0918v-1.2219h9.0918z"/>
    <path id="path6985" d="m828.88 325.46v1.2219h-9.0918v-1.2219h9.0918z"/>
    <path id="path6987" d="m837.63 325.46v1.2219h-9.0918v-1.2219h9.0918z"/>
    <path id="path6989" d="m846.38 325.46v1.2219h-9.0918v-1.2219h9.0918z"/>
    <path id="path6991" d="m855.13 325.46v1.2219h-9.0918v-1.2219h9.0918z"/>
    <path id="path6993" d="m863.88 325.46v1.2219h-9.0918v-1.2219h9.0918z"/>
    <path id="path6995" d="m872.63 325.46v1.2219h-9.0918v-1.2219h9.0918z"/>
    <path id="path6997" d="m881.38 325.46v1.2219h-9.0918v-1.2219h9.0918z"/>
    <path id="path6999" d="m890.13 325.46v1.2219h-9.0918v-1.2219h9.0918z"/>
    <path id="path7001" d="m776.38 347.33v1.2219h-9.0918v-1.2219h9.0918z"/>
    <path id="path7003" d="m785.13 347.33v1.2219h-9.0918v-1.2219h9.0918z"/>
    <path id="path7005" d="m793.88 347.33v1.2219h-9.0918v-1.2219h9.0918z"/>
    <path id="path7007" d="m802.63 347.33v1.2219h-9.0918v-1.2219h9.0918z"/>
    <path id="path7009" d="m811.38 347.33v1.2219h-9.0918v-1.2219h9.0918z"/>
    <path id="path7011" d="m820.13 347.33v1.2219h-9.0918v-1.2219h9.0918z"/>
    <path id="path7013" d="m828.88 347.33v1.2219h-9.0918v-1.2219h9.0918z"/>
    <path id="path7015" d="m837.63 347.33v1.2219h-9.0918v-1.2219h9.0918z"/>
    <path id="path7017" d="m846.38 347.33v1.2219h-9.0918v-1.2219h9.0918z"/>
    <path id="path7019" d="m855.13 347.33v1.2219h-9.0918v-1.2219h9.0918z"/>
    <path id="path7021" d="m863.88 347.33v1.2219h-9.0918v-1.2219h9.0918z"/>
    <path id="path7023" d="m872.63 347.33v1.2219h-9.0918v-1.2219h9.0918z"/>
    <path id="path7025" d="m881.38 347.33v1.2219h-9.0918v-1.2219h9.0918z"/>
    <path id="path7027" d="m890.13 347.33v1.2219h-9.0918v-1.2219h9.0918z"/>
    <path id="path7029" d="m776.38 369.21v1.2219h-9.0918v-1.2219h9.0918z"/>
    <path id="path7031" d="m785.13 369.21v1.2219h-9.0918v-1.2219h9.0918z"/>
    <path id="path7033" d="m793.88 369.21v1.2219h-9.0918v-1.2219h9.0918z"/>
    <path id="path7035" d="m802.63 369.21v1.2219h-9.0918v-1.2219h9.0918z"/>
    <path id="path7037" d="m811.38 369.21v1.2219h-9.0918v-1.2219h9.0918z"/>
    <path id="path7039" d="m820.13 369.21v1.2219h-9.0918v-1.2219h9.0918z"/>
    <path id="path7041" d="m828.88 369.21v1.2219h-9.0918v-1.2219h9.0918z"/>
    <path id="path7043" d="m837.63 369.21v1.2219h-9.0918v-1.2219h9.0918z"/>
    <path id="path7045" d="m846.38 369.21v1.2219h-9.0918v-1.2219h9.0918z"/>
    <path id="path7047" d="m855.13 369.21v1.2219h-9.0918v-1.2219h9.0918z"/>
    <path id="path7049" d="m863.88 369.21v1.2219h-9.0918v-1.2219h9.0918z"/>
    <path id="path7051" d="m872.63 369.21v1.2219h-9.0918v-1.2219h9.0918z"/>
    <path id="path7053" d="m881.38 369.21v1.2219h-9.0918v-1.2219h9.0918z"/>
    <path id="path7055" d="m890.13 369.21v1.2219h-9.0918v-1.2219h9.0918z"/>
    <path id="path7057" d="m776.38 391.08v1.2219h-9.0918v-1.2219h9.0918z"/>
    <path id="path7059" d="m785.13 391.08v1.2219h-9.0918v-1.2219h9.0918z"/>
    <path id="path7061" d="m793.88 391.08v1.2219h-9.0918v-1.2219h9.0918z"/>
    <path id="path7063" d="m802.63 391.08v1.2219h-9.0918v-1.2219h9.0918z"/>
    <path id="path7065" d="m811.38 391.08v1.2219h-9.0918v-1.2219h9.0918z"/>
    <path id="path7067" d="m820.13 391.08v1.2219h-9.0918v-1.2219h9.0918z"/>
    <path id="path7069" d="m828.88 391.08v1.2219h-9.0918v-1.2219h9.0918z"/>
    <path id="path7071" d="m837.63 391.08v1.2219h-9.0918v-1.2219h9.0918z"/>
    <path id="path7073" d="m846.38 391.08v1.2219h-9.0918v-1.2219h9.0918z"/>
    <path id="path7075" d="m855.13 391.08v1.2219h-9.0918v-1.2219h9.0918z"/>
    <path id="path7077" d="m863.88 391.08v1.2219h-9.0918v-1.2219h9.0918z"/>
    <path id="path7079" d="m872.63 391.08v1.2219h-9.0918v-1.2219h9.0918z"/>
    <path id="path7081" d="m881.38 391.08v1.2219h-9.0918v-1.2219h9.0918z"/>
    <path id="path7083" d="m890.13 391.08v1.2219h-9.0918v-1.2219h9.0918z"/>
    <path id="path7085" d="m776.38 412.96v1.2219h-9.0918v-1.2219h9.0918z"/>
    <path id="path7087" d="m785.13 412.96v1.2219h-9.0918v-1.2219h9.0918z"/>
    <path id="path7089" d="m793.88 412.96v1.2219h-9.0918v-1.2219h9.0918z"/>
    <path id="path7091" d="m802.63 412.96v1.2219h-9.0918v-1.2219h9.0918z"/>
    <path id="path7093" d="m811.38 412.96v1.2219h-9.0918v-1.2219h9.0918z"/>
    <path id="path7095" d="m820.13 412.96v1.2219h-9.0918v-1.2219h9.0918z"/>
    <path id="path7097" d="m828.88 412.96v1.2219h-9.0918v-1.2219h9.0918z"/>
    <path id="path7099" d="m837.63 412.96v1.2219h-9.0918v-1.2219h9.0918z"/>
    <path id="path7101" d="m846.38 412.96v1.2219h-9.0918v-1.2219h9.0918z"/>
    <path id="path7103" d="m855.13 412.96v1.2219h-9.0918v-1.2219h9.0918z"/>
    <path id="path7105" d="m863.88 412.96v1.2219h-9.0918v-1.2219h9.0918z"/>
    <path id="path7107" d="m872.63 412.96v1.2219h-9.0918v-1.2219h9.0918z"/>
    <path id="path7109" d="m881.38 412.96v1.2219h-9.0918v-1.2219h9.0918z"/>
    <path id="path7111" d="m890.13 412.96v1.2219h-9.0918v-1.2219h9.0918z"/>
    <path id="path7113" d="m776.38 434.83v1.2219h-9.0918v-1.2219h9.0918z"/>
    <path id="path7115" d="m785.13 434.83v1.2219h-9.0918v-1.2219h9.0918z"/>
    <path id="path7117" d="m793.88 434.83v1.2219h-9.0918v-1.2219h9.0918z"/>
    <path id="path7119" d="m802.63 434.83v1.2219h-9.0918v-1.2219h9.0918z"/>
    <path id="path7121" d="m811.38 434.83v1.2219h-9.0918v-1.2219h9.0918z"/>
    <path id="path7123" d="m820.13 434.83v1.2219h-9.0918v-1.2219h9.0918z"/>
    <path id="path7125" d="m828.88 434.83v1.2219h-9.0918v-1.2219h9.0918z"/>
    <path id="path7127" d="m837.63 434.83v1.2219h-9.0918v-1.2219h9.0918z"/>
    <path id="path7129" d="m846.38 434.83v1.2219h-9.0918v-1.2219h9.0918z"/>
    <path id="path7131" d="m855.13 434.83v1.2219h-9.0918v-1.2219h9.0918z"/>
    <path id="path7133" d="m863.88 434.83v1.2219h-9.0918v-1.2219h9.0918z"/>
    <path id="path7135" d="m872.63 434.83v1.2219h-9.0918v-1.2219h9.0918z"/>
    <path id="path7137" d="m881.38 434.83v1.2219h-9.0918v-1.2219h9.0918z"/>
    <path id="path7139" d="m890.13 434.83v1.2219h-9.0918v-1.2219h9.0918z"/>
    <path id="path7141" d="m776.38 456.71v1.2219h-9.0918v-1.2219h9.0918z"/>
    <path id="path7143" d="m785.13 456.71v1.2219h-9.0918v-1.2219h9.0918z"/>
    <path id="path7145" d="m793.88 456.71v1.2219h-9.0918v-1.2219h9.0918z"/>
    <path id="path7147" d="m802.63 456.71v1.2219h-9.0918v-1.2219h9.0918z"/>
    <path id="path7149" d="m811.38 456.71v1.2219h-9.0918v-1.2219h9.0918z"/>
    <path id="path7151" d="m820.13 456.71v1.2219h-9.0918v-1.2219h9.0918z"/>
    <path id="path7153" d="m828.88 456.71v1.2219h-9.0918v-1.2219h9.0918z"/>
    <path id="path7155" d="m837.63 456.71v1.2219h-9.0918v-1.2219h9.0918z"/>
    <path id="path7157" d="m846.38 456.71v1.2219h-9.0918v-1.2219h9.0918z"/>
    <path id="path7159" d="m855.13 456.71v1.2219h-9.0918v-1.2219h9.0918z"/>
    <path id="path7161" d="m863.88 456.71v1.2219h-9.0918v-1.2219h9.0918z"/>
    <path id="path7163" d="m872.63 456.71v1.2219h-9.0918v-1.2219h9.0918z"/>
    <path id="path7165" d="m881.38 456.71v1.2219h-9.0918v-1.2219h9.0918z"/>
    <path id="path7167" d="m890.13 456.71v1.2219h-9.0918v-1.2219h9.0918z"/>
    <path id="path7169" d="m776.38 478.58v1.2219h-9.0918v-1.2219h9.0918z"/>
    <path id="path7171" d="m785.13 478.58v1.2219h-9.0918v-1.2219h9.0918z"/>
    <path id="path7173" d="m793.88 478.58v1.2219h-9.0918v-1.2219h9.0918z"/>
    <path id="path7175" d="m802.63 478.58v1.2219h-9.0918v-1.2219h9.0918z"/>
    <path id="path7177" d="m811.38 478.58v1.2219h-9.0918v-1.2219h9.0918z"/>
    <path id="path7179" d="m820.13 478.58v1.2219h-9.0918v-1.2219h9.0918z"/>
    <path id="path7181" d="m828.88 478.58v1.2219h-9.0918v-1.2219h9.0918z"/>
    <path id="path7183" d="m837.63 478.58v1.2219h-9.0918v-1.2219h9.0918z"/>
    <path id="path7185" d="m846.38 478.58v1.2219h-9.0918v-1.2219h9.0918z"/>
    <path id="path7187" d="m855.13 478.58v1.2219h-9.0918v-1.2219h9.0918z"/>
    <path id="path7189" d="m863.88 478.58v1.2219h-9.0918v-1.2219h9.0918z"/>
    <path id="path7191" d="m872.63 478.58v1.2219h-9.0918v-1.2219h9.0918z"/>
    <path id="path7193" d="m881.38 478.58v1.2219h-9.0918v-1.2219h9.0918z"/>
    <path id="path7195" d="m890.13 478.58v1.2219h-9.0918v-1.2219h9.0918z"/>
    <path id="path7197" d="m776.38 500.46v1.2219h-9.0918v-1.2219h9.0918z"/>
    <path id="path7199" d="m785.13 500.46v1.2219h-9.0918v-1.2219h9.0918z"/>
    <path id="path7201" d="m793.88 500.46v1.2219h-9.0918v-1.2219h9.0918z"/>
    <path id="path7203" d="m802.63 500.46v1.2219h-9.0918v-1.2219h9.0918z"/>
    <path id="path7205" d="m811.38 500.46v1.2219h-9.0918v-1.2219h9.0918z"/>
    <path id="path7207" d="m820.13 500.46v1.2219h-9.0918v-1.2219h9.0918z"/>
    <path id="path7209" d="m828.88 500.46v1.2219h-9.0918v-1.2219h9.0918z"/>
    <path id="path7211" d="m837.63 500.46v1.2219h-9.0918v-1.2219h9.0918z"/>
    <path id="path7213" d="m846.38 500.46v1.2219h-9.0918v-1.2219h9.0918z"/>
    <path id="path7215" d="m855.13 500.46v1.2219h-9.0918v-1.2219h9.0918z"/>
    <path id="path7217" d="m863.88 500.46v1.2219h-9.0918v-1.2219h9.0918z"/>
    <path id="path7219" d="m872.63 500.46v1.2219h-9.0918v-1.2219h9.0918z"/>
    <path id="path7221" d="m881.38 500.46v1.2219h-9.0918v-1.2219h9.0918z"/>
    <path id="path7223" d="m890.13 500.46v1.2219h-9.0918v-1.2219h9.0918z"/>
    <path id="path7225" d="m776.38 522.33v1.2219h-9.0918v-1.2219h9.0918z"/>
    <path id="path7227" d="m785.13 522.33v1.2219h-9.0918v-1.2219h9.0918z"/>
    <path id="path7229" d="m793.88 522.33v1.2219h-9.0918v-1.2219h9.0918z"/>
    <path id="path7231" d="m802.63 522.33v1.2219h-9.0918v-1.2219h9.0918z"/>
    <path id="path7233" d="m811.38 522.33v1.2219h-9.0918v-1.2219h9.0918z"/>
    <path id="path7235" d="m820.13 522.33v1.2219h-9.0918v-1.2219h9.0918z"/>
    <path id="path7237" d="m828.88 522.33v1.2219h-9.0918v-1.2219h9.0918z"/>
    <path id="path7239" d="m837.63 522.33v1.2219h-9.0918v-1.2219h9.0918z"/>
    <path id="path7241" d="m846.38 522.33v1.2219h-9.0918v-1.2219h9.0918z"/>
    <path id="path7243" d="m855.13 522.33v1.2219h-9.0918v-1.2219h9.0918z"/>
    <path id="path7245" d="m863.88 522.33v1.2219h-9.0918v-1.2219h9.0918z"/>
    <path id="path7247" d="m872.63 522.33v1.2219h-9.0918v-1.2219h9.0918z"/>
    <path id="path7249" d="m881.38 522.33v1.2219h-9.0918v-1.2219h9.0918z"/>
    <path id="path7251" d="m890.13 522.33v1.2219h-9.0918v-1.2219h9.0918z"/>
    <path id="path7253" d="m776.38 544.21v1.2219h-9.0918v-1.2219h9.0918z"/>
    <path id="path7255" d="m785.13 544.21v1.2219h-9.0918v-1.2219h9.0918z"/>
    <path id="path7257" d="m793.88 544.21v1.2219h-9.0918v-1.2219h9.0918z"/>
    <path id="path7259" d="m802.63 544.21v1.2219h-9.0918v-1.2219h9.0918z"/>
    <path id="path7261" d="m811.38 544.21v1.2219h-9.0918v-1.2219h9.0918z"/>
    <path id="path7263" d="m820.13 544.21v1.2219h-9.0918v-1.2219h9.0918z"/>
    <path id="path7265" d="m828.88 544.21v1.2219h-9.0918v-1.2219h9.0918z"/>
    <path id="path7267" d="m837.63 544.21v1.2219h-9.0918v-1.2219h9.0918z"/>
    <path id="path7269" d="m846.38 544.21v1.2219h-9.0918v-1.2219h9.0918z"/>
    <path id="path7271" d="m855.13 544.21v1.2219h-9.0918v-1.2219h9.0918z"/>
    <path id="path7273" d="m863.88 544.21v1.2219h-9.0918v-1.2219h9.0918z"/>
    <path id="path7275" d="m872.63 544.21v1.2219h-9.0918v-1.2219h9.0918z"/>
    <path id="path7277" d="m881.38 544.21v1.2219h-9.0918v-1.2219h9.0918z"/>
    <path id="path7279" d="m890.13 544.21v1.2219h-9.0918v-1.2219h9.0918z"/>
    <path id="path7281" d="m776.38 566.08v1.2219h-9.0918v-1.2219h9.0918z"/>
    <path id="path7283" d="m785.13 566.08v1.2219h-9.0918v-1.2219h9.0918z"/>
    <path id="path7285" d="m793.88 566.08v1.2219h-9.0918v-1.2219h9.0918z"/>
    <path id="path7287" d="m802.63 566.08v1.2219h-9.0918v-1.2219h9.0918z"/>
    <path id="path7289" d="m811.38 566.08v1.2219h-9.0918v-1.2219h9.0918z"/>
    <path id="path7291" d="m820.13 566.08v1.2219h-9.0918v-1.2219h9.0918z"/>
    <path id="path7293" d="m828.88 566.08v1.2219h-9.0918v-1.2219h9.0918z"/>
    <path id="path7295" d="m837.63 566.08v1.2219h-9.0918v-1.2219h9.0918z"/>
    <path id="path7297" d="m846.38 566.08v1.2219h-9.0918v-1.2219h9.0918z"/>
    <path id="path7299" d="m855.13 566.08v1.2219h-9.0918v-1.2219h9.0918z"/>
    <path id="path7301" d="m863.88 566.08v1.2219h-9.0918v-1.2219h9.0918z"/>
    <path id="path7303" d="m872.63 566.08v1.2219h-9.0918v-1.2219h9.0918z"/>
    <path id="path7305" d="m881.38 566.08v1.2219h-9.0918v-1.2219h9.0918z"/>
    <path id="path7307" d="m890.13 566.08v1.2219h-9.0918v-1.2219h9.0918z"/>
    <path id="path7309" d="m776.38 587.96v1.2219h-9.0918v-1.2219h9.0918z"/>
    <path id="path7311" d="m785.13 587.96v1.2219h-9.0918v-1.2219h9.0918z"/>
    <path id="path7313" d="m793.88 587.96v1.2219h-9.0918v-1.2219h9.0918z"/>
    <path id="path7315" d="m802.63 587.96v1.2219h-9.0918v-1.2219h9.0918z"/>
    <path id="path7317" d="m811.38 587.96v1.2219h-9.0918v-1.2219h9.0918z"/>
    <path id="path7319" d="m820.13 587.96v1.2219h-9.0918v-1.2219h9.0918z"/>
    <path id="path7321" d="m828.88 587.96v1.2219h-9.0918v-1.2219h9.0918z"/>
    <path id="path7323" d="m837.63 587.96v1.2219h-9.0918v-1.2219h9.0918z"/>
    <path id="path7325" d="m846.38 587.96v1.2219h-9.0918v-1.2219h9.0918z"/>
    <path id="path7327" d="m855.13 587.96v1.2219h-9.0918v-1.2219h9.0918z"/>
    <path id="path7329" d="m863.88 587.96v1.2219h-9.0918v-1.2219h9.0918z"/>
    <path id="path7331" d="m872.63 587.96v1.2219h-9.0918v-1.2219h9.0918z"/>
    <path id="path7333" d="m881.38 587.96v1.2219h-9.0918v-1.2219h9.0918z"/>
    <path id="path7335" d="m890.13 587.96v1.2219h-9.0918v-1.2219h9.0918z"/>
    <path id="path7337" d="m776.38 609.83v1.2219h-9.0918v-1.2219h9.0918z"/>
    <path id="path7339" d="m785.13 609.83v1.2219h-9.0918v-1.2219h9.0918z"/>
    <path id="path7341" d="m793.88 609.83v1.2219h-9.0918v-1.2219h9.0918z"/>
    <path id="path7343" d="m802.63 609.83v1.2219h-9.0918v-1.2219h9.0918z"/>
    <path id="path7345" d="m811.38 609.83v1.2219h-9.0918v-1.2219h9.0918z"/>
    <path id="path7347" d="m820.13 609.83v1.2219h-9.0918v-1.2219h9.0918z"/>
    <path id="path7349" d="m828.88 609.83v1.2219h-9.0918v-1.2219h9.0918z"/>
    <path id="path7351" d="m837.63 609.83v1.2219h-9.0918v-1.2219h9.0918z"/>
    <path id="path7353" d="m846.38 609.83v1.2219h-9.0918v-1.2219h9.0918z"/>
    <path id="path7355" d="m855.13 609.83v1.2219h-9.0918v-1.2219h9.0918z"/>
    <path id="path7357" d="m863.88 609.83v1.2219h-9.0918v-1.2219h9.0918z"/>
    <path id="path7359" d="m872.63 609.83v1.2219h-9.0918v-1.2219h9.0918z"/>
    <path id="path7361" d="m881.38 609.83v1.2219h-9.0918v-1.2219h9.0918z"/>
    <path id="path7363" d="m890.13 609.83v1.2219h-9.0918v-1.2219h9.0918z"/>
    <path id="path7365" d="m776.38 631.71v1.2219h-9.0918v-1.2219h9.0918z"/>
    <path id="path7367" d="m785.13 631.71v1.2219h-9.0918v-1.2219h9.0918z"/>
    <path id="path7369" d="m793.88 631.71v1.2219h-9.0918v-1.2219h9.0918z"/>
    <path id="path7371" d="m802.63 631.71v1.2219h-9.0918v-1.2219h9.0918z"/>
    <path id="path7373" d="m811.38 631.71v1.2219h-9.0918v-1.2219h9.0918z"/>
    <path id="path7375" d="m820.13 631.71v1.2219h-9.0918v-1.2219h9.0918z"/>
    <path id="path7377" d="m828.88 631.71v1.2219h-9.0918v-1.2219h9.0918z"/>
    <path id="path7379" d="m837.63 631.71v1.2219h-9.0918v-1.2219h9.0918z"/>
    <path id="path7381" d="m846.38 631.71v1.2219h-9.0918v-1.2219h9.0918z"/>
    <path id="path7383" d="m855.13 631.71v1.2219h-9.0918v-1.2219h9.0918z"/>
    <path id="path7385" d="m863.88 631.71v1.2219h-9.0918v-1.2219h9.0918z"/>
    <path id="path7387" d="m872.63 631.71v1.2219h-9.0918v-1.2219h9.0918z"/>
    <path id="path7389" d="m881.38 631.71v1.2219h-9.0918v-1.2219h9.0918z"/>
    <path id="path7391" d="m890.13 631.71v1.2219h-9.0918v-1.2219h9.0918z"/>
    <path id="path7393" d="m780.75 653.58v1.2219h-9.0918v-1.2219h9.0918z"/>
    <path id="path7395" d="m789.5 653.58v1.2219h-9.0918v-1.2219h9.0918z"/>
    <path id="path7397" d="m798.25 653.58v1.2219h-9.0918v-1.2219h9.0918z"/>
    <path id="path7399" d="m807 653.58v1.2219h-9.0918v-1.2219h9.0918z"/>
    <path id="path7401" d="m815.75 653.58v1.2219h-9.0918v-1.2219h9.0918z"/>
    <path id="path7403" d="m824.5 653.58v1.2219h-9.0918v-1.2219h9.0918z"/>
    <path id="path7405" d="m833.25 653.58v1.2219h-9.0918v-1.2219h9.0918z"/>
    <path id="path7407" d="m842 653.58v1.2219h-9.0918v-1.2219h9.0918z"/>
    <path id="path7409" d="m850.75 653.58v1.2219h-9.0918v-1.2219h9.0918z"/>
    <path id="path7411" d="m859.5 653.58v1.2219h-9.0918v-1.2219h9.0918z"/>
    <path id="path7413" d="m868.25 653.58v1.2219h-9.0918v-1.2219h9.0918z"/>
    <path id="path7415" d="m877 653.58v1.2219h-9.0918v-1.2219h9.0918z"/>
    <path id="path7417" d="m885.75 653.58v1.2219h-9.0918v-1.2219h9.0918z"/>
   </g>
  </g>
  <g id="g10366" fill-rule="evenodd">
   <g id="text8729" transform="translate(2.1993 .646)">
    <path id="path9986" d="m32.391 68.663q0.05581 0 0.13022 0.08372 0.23254 0.25425 0.56741 0.40928 0.33796 0.15193 0.66663 0.15193 0.36277 0 0.36277-0.22014 0-0.13953-0.12712-0.31316-0.12712-0.17673-0.60771-0.69453-0.60462-0.65422-0.80615-0.97048-0.26665-0.41858-0.26665-0.79685 0-0.57051 0.5085-0.93328 0.49919-0.35657 1.2309-0.35657 0.5116 0 0.93948 0.20774 0.16123 0.08062 0.27595 0.18604 0.11782 0.10542 0.11782 0.17673 0 0.03411-0.03411 0.06511-0.03101 0.02791-0.06511 0.02791-0.05271 0-0.15503-0.09612-0.16743-0.15813-0.44028-0.26045-0.27285-0.10542-0.524-0.10542-0.15503 0-0.25425 0.06821-0.09612 0.06511-0.09612 0.17053 0 0.12712 0.12092 0.31006t0.40928 0.48679q0.91157 0.97048 1.1162 1.3084 0.21394 0.35657 0.21394 0.68833 0 0.28215-0.15193 0.5333t-0.42168 0.41238q-0.5147 0.30696-1.2557 0.30696-0.68213 0-1.1999-0.35347-0.36277-0.24805-0.36277-0.38757 0-0.04031 0.03101-0.07131 0.03411-0.03411 0.07751-0.03411z"/>
    <path id="path9988" d="m38.124 65.15-0.0155 1.6061-0.0062 1.6867 0.0093 0.85886q0.15813 0.0124 0.27595 0.0124 1.0883 0 1.4573-0.5054 0.18914-0.26045 0.24805-0.73794 0.06201-0.48059 0.06201-1.7425l-0.0093-0.82166-0.0124-0.25425q0-0.16123 0.13332-0.16123 0.11782 0 0.11782 0.15503 0 0.08992-0.0093 0.24495l-0.02481 1.2371q-0.0124 0.78135-0.0279 1.0635-0.0155 0.27905-0.06201 0.524-0.09612 0.5054-0.44338 0.80615-0.44338 0.38757-1.5193 0.38757-0.94258 0-1.4232-0.25425-0.37827-0.19534-0.5364-0.66042-0.07131-0.21394-0.08372-0.44028-0.0124-0.22634-0.0155-1.3798l-0.0124-1.6247h1.8976z"/>
    <path id="path9990" d="m44.803 67.208v-0.5178l-0.0062-0.82166-0.0031-0.37517-0.0031-0.23564q0-0.16743 0.11472-0.16743 0.06821 0 0.09302 0.04031 0.02791 0.03721 0.02791 0.14573v0.04341q-0.0031 0.06511-0.0031 0.21394l-0.0124 1.0449-0.0093 0.95808 0.0093 1.0077 0.0124 1.0108q-0.63872-0.39998-1.8697-1.1038-1.2309-0.70693-1.9937-1.11l0.0031 0.15193 0.03101 1.5999 0.0031 0.21394q0 0.13332-0.12402 0.13332-0.12712 0-0.12712-0.16433l0.0031-0.21704 0.0031-0.35037 0.0124-1.5906-0.0248-2.1425q1.2557 0.77825 3.8633 2.2324z"/>
   </g>
   <g id="text8737" transform="translate(6.419 .646)">
    <path id="path9979" d="m58.02 65.004 0.67593 2.3099 0.30696 1.0232 0.27595 0.92708 0.03721 0.11782h-1.8852l-0.59531-2.1921-1.2805 1.9255-1.3146-1.8293q-0.18914 0.66973-0.41238 1.6433-0.08061 0.37207-0.11782 0.44338-0.03411 0.06821-0.14263 0.06821-0.13643 0-0.13643-0.09302 0-0.02791 0.08682-0.31316l0.19224-0.66042 0.33486-1.141 0.65422-2.2293 1.6991 2.4588 1.6216-2.4588z"/>
    <path id="path9981" d="m61.809 65.023q0.48989 0 0.94568 0.20774 0.66973 0.30696 1.0232 0.94568 0.28215 0.5116 0.28215 1.1131 0 0.48369-0.21394 0.93638-0.31936 0.67593-0.99529 1.0263-0.49609 0.25735-1.0418 0.25735-0.57671 0-1.0914-0.29146-0.68523-0.38447-0.97668-1.079-0.17983-0.42478-0.17983-0.87747 0-0.56741 0.28215-1.0821 0.34727-0.63252 1.0139-0.94568 0.44338-0.20774 0.95188-0.21084zm-0.24495 0.20774-0.0186 2.0185 0.0155 1.6774 0.0031 0.37827q0.10542 0.0186 0.20154 0.0186 0.68523 0 1.2247-0.37827 0.49299-0.34727 0.71314-0.89297 0.15503-0.38137 0.15503-0.79065 0-0.5395-0.26045-1.0046-0.31936-0.57051-0.89917-0.84026-0.43408-0.20464-0.91467-0.20464-0.11162 0-0.22014 0.0186z"/>
    <path id="path9983" d="m68.363 67.208v-0.5178l-0.0062-0.82166-0.0031-0.37517-0.0031-0.23564q0-0.16743 0.11472-0.16743 0.06821 0 0.09302 0.04031 0.02791 0.03721 0.02791 0.14573v0.04341q-0.0031 0.06511-0.0031 0.21394l-0.0124 1.0449-0.0093 0.95808 0.0093 1.0077 0.0124 1.0108q-0.639-0.398-1.87-1.102-1.231-0.707-1.994-1.11l0.0031 0.15193 0.03101 1.5999 0.0031 0.21394q0 0.13332-0.12402 0.13332-0.12712 0-0.12712-0.16433l0.0031-0.21704 0.0031-0.35037 0.0124-1.5906-0.0248-2.1425q1.2557 0.77825 3.8633 2.2324z"/>
   </g>
   <g id="text8741" transform="translate(4.4571 .646)">
    <path id="path9972" d="m85.272 65.323-0.0155 0.97048-0.0093 0.92087 0.0093 2.1332h-1.8914l0.0186-2.4712-0.0093-0.84026-0.0093-0.71313-0.40928 0.0093-0.58601 0.0124-0.08682 0.0031q-0.14883 0-0.14883-0.11162 0-0.09922 0.08682-0.11162 0.02481-0.0062 0.15193-0.0093h3.8044q0.19844 0.0031 0.23564 0.0186 0.06201 0.02481 0.06201 0.10542 0 0.10542-0.15813 0.10542l-0.26975-0.0093-0.71314-0.0124h-0.06201z"/>
    <path id="path9974" d="m88.76 65.116-0.0155 1.6061-0.0062 1.6867 0.0093 0.85886q0.15813 0.0124 0.27595 0.0124 1.0883 0 1.4573-0.5054 0.18914-0.26045 0.24805-0.73794 0.06201-0.48059 0.06201-1.7425l-0.0093-0.82166-0.0124-0.25425q0-0.16123 0.13332-0.16123 0.11782 0 0.11782 0.15503 0 0.08992-0.0093 0.24495l-0.02481 1.2371q-0.0124 0.78135-0.02791 1.0635-0.0155 0.27905-0.06201 0.524-0.09612 0.5054-0.44338 0.80615-0.44338 0.38757-1.5193 0.38757-0.94258 0-1.4232-0.25425-0.37827-0.19534-0.5364-0.66042-0.07131-0.21394-0.08372-0.44028-0.0124-0.22634-0.0155-1.3798l-0.0124-1.6247h1.8976z"/>
    <path id="path9976" d="m93.523 66.474q-0.0062 0.14263-0.0062 0.34727v0.18604l0.0217 2.1394 1.0511-0.0124 0.74414-0.0093q0.18293 0 0.18293 0.11162 0 0.09302-0.09302 0.10542-0.0217 0.0031-0.25735 0.0062h-3.5223l0.0031-0.16123 0.0031-1.0356 0.0124-1.11-0.02481-1.9255h3.2866q0.22014 0 0.25115 0.0093 0.07131 0.0186 0.07131 0.10542 0 0.10852-0.13643 0.10852h-0.0217l-1.5534-0.0217-0.0124 0.96118 0.33796 0.0031 1.0852-0.0186 0.23875-0.0031q0.13022 0 0.17053 0.0217 0.04341 0.0217 0.04341 0.08682 0 0.12092-0.20464 0.12092l-0.24495-0.0062-1.4263-0.0093z"/>
   </g>
   <g id="text8745" transform="translate(12.332 .646)">
    <path id="path9965" d="m105.7 67.298q0.50229-1.1999 0.82475-2.0712 0.0527-0.14263 0.0837-0.17673 0.031-0.03721 0.10542-0.03721 0.062 0 0.10542 0.031 0.0465 0.03101 0.0465 0.07442 0 0.04031-0.24185 0.58911l-0.17983 0.40308-1.541 3.4913-0.76585-1.4418-0.60151-1.0728-0.47439 0.86816-0.72244 1.355-0.14883 0.29146-0.59841-1.4759-0.5271-1.2805q-0.39067-0.96428-0.75344-1.7332l-0.0186-0.04031h1.941l0.26665 0.68213q0.40928 1.0232 0.64803 1.5348l0.5736-1.0542 0.21084-0.39688 0.14263-0.26665 0.23875-0.44648q0.0558-0.10852 0.10542-0.19534l0.45888 0.89607q0.39688 0.75964 0.82166 1.4728z"/>
    <path id="path9967" d="m109.03 66.43q-0.006 0.14263-0.006 0.34727v0.18604l0.0217 2.1394 1.0511-0.0124 0.74414-0.0093q0.18293 0 0.18293 0.11162 0 0.09302-0.093 0.10542-0.0217 0.0031-0.25735 0.0062h-3.5223l0.003-0.16123 0.003-1.0356 0.0124-1.11-0.0248-1.9255h3.2866q0.22014 0 0.25115 0.0093 0.0713 0.0186 0.0713 0.10542 0 0.10852-0.13642 0.10852h-0.0217l-1.5534-0.0217-0.0124 0.96118 0.33796 0.0031 1.0852-0.0186 0.23874-0.0031q0.13023 0 0.17053 0.0217 0.0434 0.0217 0.0434 0.08682 0 0.12092-0.20464 0.12092l-0.24494-0.0062-1.4263-0.0093z"/>
    <path id="path9969" d="m111.4 65.072h1.6309q0.63872 0 0.96119 0.06201 0.79685 0.15193 1.2867 0.84956 0.38447 0.5488 0.38447 1.2092 0 0.67283-0.39687 1.2247-0.47749 0.66663-1.2464 0.82786-0.19844 0.04031-0.35347 0.04961t-0.68213 0.0093h-1.5751l0.009-2.0464-0.0186-2.1859zm1.8944 0.19844-0.0155 2.4929 0.0186 1.3426q0.41548-0.0031 0.59532-0.03101 0.18293-0.03101 0.41858-0.13332 0.555-0.23874 0.87126-0.76894 0.27595-0.45579 0.27595-0.98599 0-0.57671-0.32556-1.0604-0.57981-0.85886-1.7177-0.85886l-0.12093 0.0031z"/>
   </g>
   <g id="text9929" transform="translate(9.2139 .646)">
    <path id="path9956" d="m130.92 65.323-0.0155 0.97048-0.009 0.92087 0.009 2.1332h-1.8914l0.0186-2.4712-0.009-0.84026-0.009-0.71313-0.40928 0.0093-0.58601 0.0124-0.0868 0.0031q-0.14883 0-0.14883-0.11162 0-0.09922 0.0868-0.11162 0.0248-0.0062 0.15193-0.0093h3.8044q0.19843 0.0031 0.23564 0.0186 0.062 0.02481 0.062 0.10542 0 0.10542-0.15813 0.10542l-0.26975-0.0093-0.71313-0.0124h-0.062z"/>
    <path id="path9958" d="m136.45 66.573-0.006-0.87126-0.006-0.38757q0-0.15193 0.0248-0.20464t0.10232-0.05271q0.11782 0 0.11782 0.18914l-0.003 0.21084-0.006 0.68833-0.009 1.1069 0.009 1.1534 0.006 0.80925q0 0.11162-0.0248 0.15193-0.0217 0.04031-0.0899 0.04031-0.0713 0-0.0992-0.04341-0.0248-0.04341-0.0248-0.15813l0.003-0.26355 0.009-1.5565v-0.57671l-0.11782-0.0031-0.60462-0.0124-1.3302 0.0155 0.003 0.85576 0.0186 1.6836h-1.9007l0.0155-2.6882-0.006-0.71003-0.003-0.65422-0.006-0.17983h1.9007l-0.003 0.16123-0.0155 1.296q0.31626 0.0217 1.0046 0.0217 0.63252 0 1.0418-0.0217z"/>
    <path id="path9960" d="m139.24 65.116-0.0155 1.6061-0.006 1.6867 0.009 0.85886q0.15813 0.0124 0.27596 0.0124 1.0883 0 1.4573-0.5054 0.18914-0.26045 0.24805-0.73794 0.062-0.48059 0.062-1.7425l-0.009-0.82166-0.0124-0.25425q0-0.16123 0.13332-0.16123 0.11782 0 0.11782 0.15503 0 0.08992-0.009 0.24495l-0.0248 1.2371q-0.0124 0.78135-0.0279 1.0635-0.0155 0.27905-0.062 0.524-0.0961 0.5054-0.44338 0.80615-0.44339 0.38757-1.5193 0.38757-0.94258 0-1.4232-0.25425-0.37827-0.19534-0.5364-0.66042-0.0713-0.21394-0.0837-0.44028t-0.0155-1.3798l-0.0124-1.6247h1.8976z"/>
    <path id="path9962" d="m144.7 68.647q0.29765 0.20464 0.64182 0.35037 0.34727 0.14263 0.74414 0.22324 0.0961 0.0186 0.0961 0.09302 0 0.10232-0.14263 0.10232-0.32556 0-0.91467-0.28525-0.48989-0.23874-1.1224-0.73794v0.12712l0.003 0.5271v0.30076h-1.8883v-0.13953l0.006-1.0108 0.009-1.2092-0.006-1.8728h1.2464q0.83716 0 1.265 0.04651 0.42788 0.04651 0.72863 0.17363 0.4899 0.20464 0.77515 0.67283 0.26355 0.43408 0.26355 0.91157 0 0.5085-0.29456 0.95808-0.47438 0.72244-1.4108 0.76895zm-0.29456-0.19224 0.14883 0.0031q0.63872 0 1.079-0.35657 0.27906-0.22324 0.42789-0.55811 0.13952-0.30696 0.13952-0.62632 0-0.5426-0.35346-0.97048-0.26976-0.33176-0.67593-0.46819-0.40618-0.13643-1.1441-0.14573l-0.0279 2.0774v0.56121l0.003 0.14573q0.18913 0.18294 0.40307 0.33796z"/>
   </g>
   <g id="text9933" transform="translate(6.1505 .646)">
    <path id="path9949" d="m163.09 66.474-0.006 0.75034 0.0186 1.9813v0.14263h-1.8945l0.0217-2.3037-0.0248-1.9286h3.2866q0.22324 0 0.25115 0.0093 0.0713 0.0186 0.0713 0.10542 0 0.10852-0.13642 0.10852h-0.0217l-1.5534-0.0217-0.0124 0.96118 0.33796 0.0031 1.0852-0.0186 0.23874-0.0031q0.13023 0 0.17053 0.0217 0.0434 0.0217 0.0434 0.08682 0 0.12092-0.20464 0.12092l-0.24494-0.0062-1.4263-0.0093z"/>
    <path id="path9951" d="m167.93 68.647q0.29766 0.20464 0.64182 0.35037 0.34727 0.14263 0.74414 0.22324 0.0961 0.0186 0.0961 0.09302 0 0.10232-0.14262 0.10232-0.32557 0-0.91468-0.28525-0.48989-0.23874-1.1224-0.73794v0.12712l0.003 0.5271v0.30076h-1.8883v-0.13953l0.006-1.0108 0.009-1.2092-0.006-1.8728h1.2464q0.83716 0 1.265 0.04651 0.42788 0.04651 0.72864 0.17363 0.48989 0.20464 0.77514 0.67283 0.26355 0.43408 0.26355 0.91157 0 0.5085-0.29455 0.95808-0.47439 0.72244-1.4108 0.76895zm-0.29455-0.19224 0.14882 0.0031q0.63873 0 1.079-0.35657 0.27905-0.22324 0.42788-0.55811 0.13953-0.30696 0.13953-0.62632 0-0.5426-0.35347-0.97048-0.26975-0.33176-0.67593-0.46819t-1.1441-0.14573l-0.0279 2.0774v0.56121l0.003 0.14573q0.18914 0.18294 0.40308 0.33796z"/>
    <path id="path9953" d="m172.1 65.116v0.21704l-0.0155 1.6991 0.0124 2.3161h-1.8945l0.0217-2.5332-0.0217-1.5472 0.003-0.15193h1.8945z"/>
   </g>
   <g id="text9937" transform="translate(8.1123 .646)">
    <path id="path9942" d="m183.99 68.726q0.0558 0 0.13022 0.08372 0.23255 0.25425 0.56741 0.40928 0.33797 0.15193 0.66663 0.15193 0.36277 0 0.36277-0.22014 0-0.13953-0.12713-0.31316-0.12712-0.17673-0.60771-0.69453-0.60462-0.65422-0.80616-0.97048-0.26665-0.41858-0.26665-0.79685 0-0.57051 0.5085-0.93328 0.49919-0.35657 1.2309-0.35657 0.5116 0 0.93948 0.20774 0.16123 0.08061 0.27595 0.18604 0.11783 0.10542 0.11783 0.17673 0 0.03411-0.0341 0.06511-0.031 0.0279-0.0651 0.0279-0.0527 0-0.15503-0.09612-0.16743-0.15813-0.44029-0.26045-0.27285-0.10542-0.524-0.10542-0.15502 0-0.25424 0.06821-0.0961 0.06511-0.0961 0.17053 0 0.12712 0.12092 0.31006 0.12092 0.18293 0.40928 0.48679 0.91157 0.97048 1.1162 1.3084 0.21394 0.35657 0.21394 0.68833 0 0.28215-0.15193 0.5333t-0.42168 0.41238q-0.5147 0.30696-1.2557 0.30696-0.68212 0-1.1999-0.35347-0.36277-0.24805-0.36277-0.38757 0-0.04031 0.031-0.07131 0.0341-0.03411 0.0775-0.03411z"/>
    <path id="path9944" d="m189.9 64.959 2.4805 4.4865h-2.1487l-0.29456-0.56741h-1.0418l-0.91778-0.0031-0.15503-0.0031-0.20463 0.37827q-0.0899 0.17053-0.12713 0.21084-0.0341 0.04341-0.0868 0.04341-0.10542 0-0.10542-0.09302 0-0.04031 0.0589-0.14883 0.062-0.11162 0.42478-0.72554l1.8758-3.1595 0.24185-0.41858zm-0.96429 2.0309-0.5426 0.91467-0.43408 0.75344 0.93018 0.0124 0.93327-0.0093-0.88677-1.6712z"/>
    <path id="path9946" d="m195.01 65.421-0.0155 0.97048-0.009 0.92087 0.009 2.1332h-1.8914l0.0186-2.4712-0.009-0.84026-0.009-0.71314-0.40927 0.0093-0.58602 0.0124-0.0868 0.0031q-0.14883 0-0.14883-0.11162 0-0.09922 0.0868-0.11162 0.0248-0.0062 0.15193-0.0093h3.8044q0.19844 0.0031 0.23565 0.0186 0.062 0.02481 0.062 0.10542 0 0.10542-0.15813 0.10542l-0.26975-0.0093-0.71313-0.0124h-0.062z"/>
   </g>
  </g>
 </g>
</svg>
